/* XPM */
static char *c1d59660ab0a4ad6b5a56e943006b304a6PQYBjZXjDsVlcc[] = {
/* columns rows colors chars-per-pixel */
"64 64 223 2 ",
"   c None",
".  c #010101",
"X  c #040609",
"o  c #070A0E",
"O  c #090D13",
"+  c #0B1119",
"@  c #290806",
"#  c #340601",
"$  c #320905",
"%  c #3D0B02",
"&  c #320C0D",
"*  c #2D1F0C",
"=  c #37120E",
"-  c #2F1319",
";  c #3C2808",
":  c #3E3412",
">  c #3A2810",
",  c #0E1522",
"<  c #161C28",
"1  c #141F33",
"2  c #2F1823",
"3  c #1F3D3D",
"4  c #17253C",
"5  c #3E2C3A",
"6  c #26373A",
"7  c #3C3D3D",
"8  c #2D2928",
"9  c #4A0602",
"0  c #570902",
"q  c #480F11",
"w  c #4C1A15",
"e  c #5B191B",
"r  c #53130A",
"t  c #640C03",
"y  c #6A0A00",
"u  c #670E0A",
"i  c #780B02",
"p  c #691308",
"a  c #7D1705",
"s  c #761607",
"d  c #781A1A",
"f  c #631718",
"g  c #5C2B0A",
"h  c #512B18",
"j  c #7D2D12",
"k  c #6F3213",
"l  c #541E28",
"z  c #4D1B24",
"x  c #7A1C23",
"c  c #522927",
"v  c #58362B",
"b  c #4E2B33",
"n  c #752835",
"m  c #6C342C",
"M  c #784906",
"N  c #6F4B17",
"B  c #694836",
"V  c #685032",
"C  c #746229",
"Z  c #1C2E4D",
"A  c #393E45",
"S  c #303552",
"D  c #443447",
"F  c #543843",
"G  c #4E3554",
"H  c #75334D",
"J  c #39414E",
"K  c #294575",
"L  c #59595A",
"P  c #545659",
"I  c #695347",
"U  c #6B5858",
"Y  c #504771",
"T  c #794E78",
"R  c #694075",
"E  c #646973",
"W  c #7E7E7E",
"Q  c #747474",
"!  c #8A0D07",
"~  c #940A03",
"^  c #9D0F04",
"/  c #991506",
"(  c #871917",
")  c #911B14",
"_  c #A40D01",
"`  c #B30F01",
"'  c #A61405",
"]  c #BB1202",
"[  c #B51808",
"{  c #AD1E18",
"}  c #B31B11",
"|  c #9D2B0F",
" . c #BD2106",
".. c #B4260E",
"X. c #BA2618",
"o. c #AB2C14",
"O. c #861E23",
"+. c #882329",
"@. c #892B37",
"#. c #9A323A",
"$. c #952E2D",
"%. c #A93828",
"&. c #A73337",
"*. c #AF302D",
"=. c #C41402",
"-. c #CD1401",
";. c #C51D0A",
":. c #D31400",
">. c #D91A03",
",. c #C41E10",
"<. c #E01C04",
"1. c #C62409",
"2. c #C62915",
"3. c #D02D10",
"4. c #EA290B",
"5. c #F32B0A",
"6. c #FE2E0B",
"7. c #F22707",
"8. c #E72E11",
"9. c #FF3110",
"0. c #C93324",
"q. c #9F5604",
"w. c #8A5406",
"e. c #BE5504",
"r. c #966415",
"t. c #B56A0A",
"y. c #B3492C",
"u. c #947131",
"i. c #B07F38",
"p. c #C85C0A",
"a. c #D74418",
"s. c #D8560B",
"d. c #ED500F",
"f. c #D26E15",
"g. c #E97607",
"h. c #F27A04",
"j. c #CA6A2B",
"k. c #E87227",
"l. c #EE4A32",
"z. c #943644",
"x. c #843852",
"c. c #953F51",
"v. c #8D394E",
"b. c #934B5A",
"n. c #A54652",
"m. c #AD4948",
"M. c #80715E",
"N. c #884767",
"B. c #875173",
"V. c #907570",
"C. c #B36745",
"Z. c #B9812D",
"A. c #AB883A",
"S. c #DD8A0B",
"D. c #D9870E",
"F. c #C9831A",
"G. c #D38612",
"H. c #D3911F",
"J. c #E28B09",
"K. c #E78A07",
"L. c #ED9204",
"P. c #F29403",
"I. c #F7901F",
"U. c #F6A414",
"Y. c #C78829",
"T. c #CB972B",
"R. c #CF9231",
"E. c #E29D35",
"W. c #D9AB3B",
"Q. c #F4B236",
"!. c #B4944D",
"~. c #BFA654",
"^. c #B1A262",
"/. c #999173",
"(. c #C9A647",
"). c #C5AA53",
"_. c #D6B54E",
"`. c #E4BF4C",
"'. c #ECC44C",
"]. c #E9C34C",
"[. c #F3CB4D",
"{. c #F8CF4E",
"}. c #FBD14D",
"|. c #F5CD50",
" X c #FAD151",
".X c #ECC650",
"XX c #453F86",
"oX c #304F9F",
"OX c #564498",
"+X c #725391",
"@X c #576782",
"#X c #74619B",
"$X c #485DBB",
"%X c #5169A5",
"&X c #4F6AB5",
"*X c #726FAC",
"=X c #895E89",
"-X c #8A6A9D",
";X c #8574AF",
":X c #7792C4",
">X c #6FA7C7",
",X c #7BE7E0",
"<X c #73D6D5",
"1X c #878683",
"2X c #838ABE",
"3X c #87A9BF",
"4X c #97A6BF",
"5X c #9FC5BF",
"6X c #949FC2",
"7X c #97A6C2",
"8X c #83B0DE",
"9X c #A3B1C2",
"0X c #BEC6C0",
"qX c #B2E2DE",
"wX c #80DAFD",
"eX c #A7F1F0",
"rX c #9AE7EF",
"tX c #CDD1CC",
"yX c #E5CAC2",
"uX c #EEDBD7",
"iX c #CCFCFA",
"pX c #EAF1EE",
"aX c #F2FFFE",
/* pixels */
"                                                                                                                                ",
"                                                                                                                                ",
"                                                                                                                                ",
"                                                                                                                                ",
"                                                                                                                                ",
"                                                        v % % % # #                                                             ",
"                                                    . . 1.6.6.6.:.:.y . .                                                       ",
"                                                W # -.>.5.9.9.9.6.<.:.=.~ .                                                     ",
"                                                Q # -.g.h.I.Q.Q.<.>.] ..W..                                                     ",
"                                                B ! -.P.P.P.Q.[.k.k.k.R.}.w.                                                    ",
"                                              7 0 =.>.P.P.P.U.'.[.|.[.|.}.U.;                                                   ",
"                                              7 9 ' 5.P.P.P.P.P.[.|.[.[. X}.:                                                   ",
"                                              J t ] ! 8.g.L.L.L.'.[..X.X X X:                                                   ",
"                                              b t ] ~ 8.g.K.L.L.[.'..X].|.{.:                                                   ",
"                                              7 t [ ! d.J.t.M M C T.Q.`.[.Q.;                                                   ",
"                                                0 [ / L.S.M + 3 3 r.Z.].`.t.*                                                   ",
"                                                9 _ ;.J.S.N 3 <XrXZ C `._.o                                                     ",
"                                                  $ -.8.g.D.S.G.S.W._.].).D.                                                    ",
"                                                  $ ] 8.3.f.F.G.S.H.R.H.A.G.                                                    ",
"                                                  U r s 2.a.j.F.G.T.R.!.!.N                                                     ",
"                                                    X @ ( X.y.Y.Z.W.~./.!.+                                                     ",
"                                                    O ( @ t %.i.A.!.^.1XZ.O                                                     ",
"                                                    O o.( q , Z n.z.Y OX<                                                       ",
"                                                  6 O +.+.O.( G Y S oXK 1                                                       ",
"                                            E E F w l +.@.z.#.H &X%X$X%XY @X                                                    ",
"                                            $ = e +.{ *.@.v.=XB.:X7X>X:X=XA 2 -                                                 ",
"                                          . ;.2.2.} 0.*.n.n.-X7X9X0XqXrX;Xn.&.+.l 1                                             ",
"                                          X 8.} j.R.} X.*.m.=X7XyXpXaXiXwX;XJ V u.+                                             ",
"                                        b u -.s.R.!.2 +.@.x.=X7XyXpXaXaXeX6X%XE Q Z                                             ",
"                                        @ / i.Y.u.B e ) O.n T >XyXuXpXiX8X=XS 7 V                                               ",
"                                        $ [ `.'.C @ j +.@.H *X7X9X0XtXrX2XY b < J                                               ",
"                                        @ ! `.`.V + , x @.#X#X*X:X9X4X4X;XK I v J                                               ",
"                                    L 9 ' 3.} - E     4 K G N.+X&X*X=X2XT Z F G A                                               ",
"                                    L p 8.8.$ V.        S 5 x $X+X-Xc.*Xn.Z n x F J                                             ",
"                                    L s 5.8.X           D z O.$X&.b.#.x.c.1 H O.d <                                             ",
"                                    L s 4.4.X           D u H OX@.z.$.+.x.2 z x ( &                                             ",
"                                    L s 4.} ,         O u ) OXx.n *.0.2.z.x < e } { .                                           ",
"                                    L t 1.0.  6 X 7   o ~ 2.+X).~.%.X.2.x f.; l y.J.G.;                                         ",
"                                        b     C.| k 7 . | &.B.).).%.f g t.F.( w g G.; w.N                                       ",
"                                        8     l.s.q.. 9 1.b.V.(.T.g q w.G.F.o.r > J.o q.k L                                     ",
"                                        v ..d.d.s.w.. ! 2.b.(.W.u.* g p.f.G. .t * r.w k N                                       ",
"                                          . P.P.M . . ~ %.y.S.J.O X g e.e.J.p.0 . X L.;                                         ",
"                                            . . h B . 8.*.C.A.X o . g e.e.e...t 7   X                                           ",
"                                                  = y >.X.o.k X   6 t  .| 1.r U                                                 ",
"                                                  $ 1.1.} ! w Q   7 t ] ~ =.#                                                   ",
"                                                  % 5.1.} t A     7 t =.~ / b                                                   ",
"                                                  9 5.! ` t 7     7 t ] ~ .                                                     ",
"                                                  # -.-.# Q       7 t -.-..                                                     ",
"                                                k ` 7.:.#         b 0 ` :..                                                     ",
"                                              7 s 4.6.` @         7 9 _ :..                                                     ",
"                                              J ! 6.6.y b         J 9 _ =..                                                     ",
"                                              b a 6.6..           7 9 ~ ~ .                                                     ",
"                                              A a 5.:..           7 y =.~ .                                                     ",
"                                              A a 1.#             7 y =.~ .                                                     ",
"                                              k [  ..             J y -.` u 0 v                                                 ",
"                                            . ' 7. ..             b 0 -.:.:.` y @ #                                             ",
"                                            .  .6. ..             7 9 _ -.:.:.` _ :..                                           ",
"                                          . 6.>.4. ..               . X . . . . . . .                                           ",
"                                          . % $ # # .                                                                           ",
"                                          W V.W                                                                                 ",
"                                                                                                                                ",
"                                                                                                                                ",
"                                                                                                                                ",
"                                                                                                                                "
};
