/* XPM */
static char *_77500d1f17b4842b1bfcf4f76abf864xXsRYyf26CAkknm0[] = {
/* columns rows colors chars-per-pixel */
"64 64 226 2 ",
"   c None",
".  c #010101",
"X  c #05070A",
"o  c #06080C",
"O  c #0A0E15",
"+  c #0D121B",
"@  c #0B1317",
"#  c #290806",
"$  c #340601",
"%  c #3D0B02",
"&  c #320A07",
"*  c #311411",
"=  c #3C280A",
"-  c #3D3312",
";  c #322513",
":  c #0F1622",
">  c #121B2B",
",  c #2A1A27",
"<  c #321C28",
"1  c #19263C",
"2  c #1F3C3D",
"3  c #292729",
"4  c #24383C",
"5  c #3C3C3D",
"6  c #352331",
"7  c #4A0602",
"8  c #470806",
"9  c #590B06",
"0  c #511415",
"q  c #630B03",
"w  c #6A0A01",
"e  c #630F0D",
"r  c #770B02",
"t  c #7E1705",
"y  c #751607",
"u  c #6E1712",
"i  c #5A2A0C",
"p  c #4A261A",
"a  c #572D13",
"s  c #6F3015",
"d  c #521D24",
"f  c #53252B",
"g  c #482732",
"h  c #53293A",
"j  c #4B3732",
"k  c #532F2B",
"l  c #6E212B",
"z  c #79232B",
"x  c #6B2738",
"c  c #792A37",
"v  c #673F3D",
"b  c #613D20",
"n  c #774806",
"m  c #684616",
"M  c #6E5F2B",
"N  c #684E2E",
"B  c #746126",
"V  c #1C2D49",
"C  c #3A3B47",
"Z  c #2F3754",
"A  c #273E64",
"S  c #523747",
"D  c #4E3958",
"F  c #783448",
"G  c #7A3C54",
"H  c #68344A",
"J  c #663968",
"K  c #374253",
"L  c #3B404B",
"P  c #324573",
"I  c #575758",
"U  c #5A534C",
"Y  c #6F4F56",
"T  c #474978",
"R  c #444166",
"E  c #784869",
"W  c #735478",
"Q  c #6B4C6F",
"!  c #5A616D",
"~  c gray50",
"^  c #747274",
"/  c #6D6971",
"(  c #890D07",
")  c #950A03",
"_  c #9B0E04",
"`  c #86150C",
"'  c #971504",
"]  c #871D1D",
"[  c #961812",
"{  c #A40D01",
"}  c #B30F01",
"|  c #A61406",
" . c #B41403",
".. c #BA1202",
"X. c #B91907",
"o. c #AA1D15",
"O. c #B91F11",
"+. c #972B16",
"@. c #BD2206",
"#. c #B6230E",
"$. c #B8330F",
"%. c #A5271A",
"&. c #B82516",
"*. c #AD3311",
"=. c #9B2526",
"-. c #983A37",
";. c #8B2D2F",
":. c #B22C21",
">. c #B8352B",
",. c #A82B29",
"<. c #C41302",
"1. c #CB1401",
"2. c #C81C08",
"3. c #D31400",
"4. c #D81B04",
"5. c #E01B03",
"6. c #C02612",
"7. c #D82E15",
"8. c #D22A0E",
"9. c #E52B0E",
"0. c #EC2708",
"q. c #FE2E0B",
"w. c #F32909",
"e. c #E22E12",
"r. c #E92E10",
"t. c #FF3110",
"y. c #C03121",
"u. c #8E550A",
"i. c #BA5506",
"p. c #BF5614",
"a. c #946119",
"s. c #BD7E1D",
"d. c #AC680D",
"f. c #A64430",
"g. c #88622B",
"h. c #B57A24",
"j. c #AE6D32",
"k. c #D85B0C",
"l. c #D64F0F",
"z. c #EB4911",
"x. c #DD790C",
"c. c #C37B17",
"v. c #CB6917",
"b. c #EA7606",
"n. c #C14621",
"m. c #E57127",
"M. c #DF5D2D",
"N. c #893746",
"B. c #993B45",
"V. c #93514F",
"C. c #987948",
"Z. c #8F7A51",
"A. c #884D68",
"S. c #AB5245",
"D. c #B88A37",
"F. c #B48E33",
"G. c #D8860C",
"H. c #CC8212",
"J. c #C58118",
"K. c #D68911",
"L. c #E48D06",
"P. c #EA8E04",
"I. c #EC9104",
"U. c #EF9508",
"Y. c #F09203",
"T. c #EF9E11",
"R. c #F6A516",
"E. c #C98C2C",
"W. c #EB962B",
"Q. c #CCA23D",
"!. c #F1AF36",
"~. c #9B8A5A",
"^. c #AB9857",
"/. c #B49E55",
"(. c #B38F46",
"). c #BBA250",
"_. c #98916A",
"`. c #DCB94B",
"'. c #C8AB4F",
"]. c #E1BC4B",
"[. c #ECC54C",
"{. c #EAC54E",
"}. c #F3CB4D",
"|. c #F8CE4E",
" X c #F5CD50",
".X c #FAD04C",
"XX c #375993",
"oX c #37568E",
"OX c #3556B4",
"+X c #3B62A3",
"@X c #485599",
"#X c #535091",
"$X c #6D5789",
"%X c #576A8F",
"&X c #6D6F90",
"*X c #5864A2",
"=X c #5371AF",
"-X c #6868A7",
";X c #6571B7",
":X c #565EAE",
">X c #3555CA",
",X c #2E76F7",
"<X c #4E74D0",
"1X c #6179CA",
"2X c #3F91FE",
"3X c #5A85DA",
"4X c #5A92DE",
"5X c #6482CE",
"6X c #5B90E8",
"7X c #508AEF",
"8X c #55AEFD",
"9X c #63ABFB",
"0X c #66B1FD",
"qX c #72BDFF",
"wX c #72D4D2",
"eX c #76CAFF",
"rX c #79D6FF",
"tX c #67CAFF",
"yX c #84DCFF",
"uX c #99F6FF",
"iX c #88F1FF",
"pX c #B3FEFF",
"aX c #C8FFFF",
"sX c #D7FFFF",
"dX c #FFFFFF",
"fX c #E8FFFF",
/* pixels */
"                                                                                                                                ",
"                                                                                                                                ",
"                                                                                                                                ",
"                                                                                                                                ",
"                                                                                                                                ",
"                                                        v % % % $ $                                                             ",
"                                                    X . X.q.q.q.3.3.w . .                                                       ",
"                                                Z.* 1.3.w.t.t.t.q.5.3.<.) .                                                     ",
"                                                ^ $ 1.b.b.W.!.!.5.4...$.!..                                                     ",
"                                                N r 1.I.Y.R.!..Xm.m.m.E..Xn                                                     ",
"                                              5 q ..4.I.Y.Y.T.!.[. X{. X|.R.=                                                   ",
"                                              5 8 | r.P.I.I.I.U.[. X{.{..X.X-                                                   ",
"                                              5 q  .( r.b.G.P.I.[.[.{.{.}.}.-                                                   ",
"                                              5 w } ( e.x.L.L.I.[.[.{.`.}.}.-                                                   ",
"                                              C q X.( k.x.d.n n B E.`.`.[.!.=                                                   ",
"                                                q  ._ K.G.m O 4 2 u.F.`.`.d.;                                                   ",
"                                                8 _ 2.L.H.m 4 wXwX2 M `.'.o                                                     ",
"                                                  & ..7.v.x.H.c.K.Q.'.{./.J.                                                    ",
"                                                  & X.e.l.v.h.c.K.E.E.E.C.h.                                                    ",
"                                                  Y 9 y &.n.j.h.J.F.D.~.Z.m                                                     ",
"                                                    o * ` %.f.j.j.^./.~ ~.:                                                     ",
"                                                    + u * e -.C.Z.^._.%Xj.O                                                     ",
"                                                    + =.z * > A A.N.@XOX1 +X                                                    ",
"                                                  4 @ c c ;.l T @XP ,XOXV oX                                                    ",
"                                            ! ! S d g z F G N.Q 7X3X2X3X*X%X                                                    ",
"                                            & * f ;.=.-.G E ;X$X8XrXtX9X*XZ 6 ,                                                 ",
"                                          X X.&.:.o.y.B.A.A.1XeXyXaXpXiX5XA.N.c S V                                             ",
"                                          . 7.O.j.E.o.=.B.V.-XrXsXdXdXaXrX3XT U g.:                                             ",
"                                        g e O.p.h.C.< x F E ;XrXsXdXdXdXpXeX4X*X^ P XX                                          ",
"                                        # [ j.D.C.Y d ] l H *XrXfXdXdXsXqX-XA U U                                               ",
"                                        &  .`.].M # z ;.F Q 3XyXiXpXaXuX0X#XC , K                                               ",
"                                        # ` `.`.M : > l F 3X1X7X8XrXeXtX6XXX! j C                                               ",
"                                    I 8 _ 7.o.* !     V +XD $X>X2X8X1X9X-XoXS R C                                               ",
"                                    I u 8.r.& ^     =XXXZ S c ,X:X;XW <XA.A H l D C                                             ",
"                                    I t r.r.X     XX    Z g c ,XA.W N.Q J V D ;.u 1                                             ",
"                                    I y 0.7.o           C e J >XF G ;.F A., g l z *                                             ",
"                                    I y 9.o.:         O e ] >XJ x -.>.:.G z , f %.o.X                                           ",
"                                    I q O.>.  4 X 5   O ( &.>X/.^.f.,.&.l j.; d -.G.J.=                                         ",
"                                        j     S.*.s C . [ B.#X).^.-.e a d.h.z 0 a J.= u.N                                       ",
"                                        3     M.k.u.. 8 O.W / ).F.b a s s.h.*.0 = G.X u.s I                                     ",
"                                        k #.z.z.k.u.. ( &.W F.'.g.; i i.s.c.$.9 ; a.= s m                                       ",
"                                          X I.I.n . . ( %.V.H.G.@ X i i.i.G.$.q . o L.=                                         ",
"                                            . . p N . r.,.V.F.X @ o i i.i.i.*.e 5   o                                           ",
"                                                  * r 2.=.=.s X   3 9 @.' @.0 Y                                                 ",
"                                                  & 2.2.o.r p /   5 q ..( <.& !                                                 ",
"                                                  % r.&.o.q 5     5 q ..) ' k                                                   ",
"                                                  % w.( | q 5     5 q ..) .                                                     ",
"                                                  $ 1.1.$ ^       5 q 1.1..                                                     ",
"                                                s  .w.3.$         L 7 } 3..                                                     ",
"                                              5 r 0.q.} $         j 7 { 3..                                                     ",
"                                              5 t q.q.r j         5 7 { <..                                                     ",
"                                              5 t q.q..           5 7 ) ) .                                                     ",
"                                              5 t w.3..           5 w <.) .                                                     ",
"                                              S t 2.$             5 w <.) .                                                     ",
"                                              s X.@..             j w 1.} w 7 v                                                 ",
"                                            . { 0.@..             5 9 1.3.3.} w # $                                             ",
"                                            . @.q.@..             C 7 { 3.3.3.} { 3..                                           ",
"                                          . q.4.5.@..               . . . . . . . . .                                           ",
"                                          . % $ % $ .                                                                           ",
"                                          ~ ~ ~                                                                                 ",
"                                                                                                                                ",
"                                                                                                                                ",
"                                                                                                                                ",
"                                                                                                                                "
};
