/* XPM */
static char *result[] = {
/* columns rows colors chars-per-pixel */
"64 64 197 2 ",
"   c #1B1B29",
".  c #0A0A32",
"X  c #1A0130",
"o  c #27012E",
"O  c #37373D",
"+  c #3D3B3B",
"@  c #540005",
"#  c #5A0000",
"$  c #660101",
"%  c #6C0606",
"&  c #670A0D",
"*  c #750000",
"=  c #7C0000",
"-  c #72050A",
";  c #790B0B",
":  c #760016",
">  c #7B0019",
",  c #7C1515",
"<  c #43002A",
"1  c #4B012B",
"2  c #530026",
"3  c #78142B",
"4  c #442B2B",
"5  c #423434",
"6  c #483838",
"7  c #4A3939",
"8  c #080548",
"9  c #14014D",
"0  c #121253",
"q  c #11115E",
"w  c #3D3D44",
"e  c #383857",
"r  c #0B0164",
"t  c #161665",
"y  c #00017D",
"u  c #151572",
"i  c #4E0044",
"p  c #4F0056",
"a  c #621345",
"s  c #464647",
"d  c #4C4141",
"f  c #424249",
"g  c #514343",
"h  c #5E4C4C",
"j  c #4C4C53",
"k  c #565454",
"l  c #5B5252",
"z  c #5C5C5F",
"x  c #604444",
"c  c #614E4E",
"v  c #625151",
"b  c #655959",
"n  c #5A5A67",
"m  c #5D5D6B",
"M  c #5C5C75",
"N  c #5F6161",
"B  c #656666",
"V  c #6B6466",
"C  c #686867",
"Z  c #666868",
"A  c #686968",
"S  c #766868",
"D  c #70716F",
"F  c #656579",
"G  c #717171",
"H  c #7D7E7D",
"J  c #830000",
"K  c #8C0000",
"L  c #86000A",
"P  c #870A0A",
"I  c #880B0B",
"U  c #930000",
"Y  c #9C0000",
"T  c #940C0C",
"R  c #9D0C0C",
"E  c #880013",
"W  c #930012",
"Q  c #980A1B",
"!  c #8B1515",
"~  c #881717",
"^  c #931010",
"/  c #9B1212",
"(  c #95161B",
")  c #991F1F",
"_  c #A40101",
"`  c #A90505",
"'  c #A10C0C",
"]  c #AB0C0C",
"[  c #A41414",
"{  c #AD1414",
"}  c #A31C1C",
"|  c #AB1C1C",
" . c #B01717",
".. c #B11D1D",
"X. c #9E1929",
"o. c #981C31",
"O. c #912424",
"+. c #9E2525",
"@. c #932A2A",
"#. c #9B3636",
"$. c #A52525",
"%. c #AB2424",
"&. c #A32929",
"*. c #A92929",
"=. c #B42323",
"-. c #B92726",
";. c #B52D2D",
":. c #B92C2C",
">. c #A53434",
",. c #AC3535",
"<. c #A33D3D",
"1. c #AB3D3D",
"2. c #B53131",
"3. c #BA3333",
"4. c #B53D3D",
"5. c #BD3A3A",
"6. c #C13A39",
"7. c #9D4B4B",
"8. c #A74848",
"9. c #B34747",
"0. c #BD4242",
"q. c #B64949",
"w. c #BC4A4A",
"e. c #A25555",
"r. c #A85B5B",
"t. c #BB5353",
"y. c #B45858",
"u. c #BB5D5D",
"i. c #827272",
"p. c #867A7A",
"a. c #937575",
"s. c #A66161",
"d. c #B56060",
"f. c #B06F6F",
"g. c #BB6C6C",
"h. c #BD7373",
"j. c #C04141",
"k. c #C34C4C",
"l. c #C45454",
"z. c #C65C5C",
"x. c #C66363",
"c. c #C96464",
"v. c #C56E6E",
"b. c #C96B6B",
"n. c #C27070",
"m. c #CB7474",
"M. c #CE7C7C",
"N. c #D17272",
"B. c #D17D7D",
"V. c #07088D",
"C. c #160388",
"Z. c #000199",
"A. c #140293",
"S. c #0B0BA9",
"D. c #1301A1",
"F. c #1010A2",
"G. c #0001B4",
"H. c #1301B3",
"J. c #1201BD",
"K. c #1C1CB5",
"L. c #0001CA",
"P. c #1101C0",
"I. c #0E01D5",
"U. c #0001DC",
"Y. c #2727D1",
"T. c #828282",
"R. c #8C8383",
"E. c #8A8B8B",
"W. c #959695",
"Q. c #9D9D9D",
"!. c #A08F8F",
"~. c #A09898",
"^. c #9FA09F",
"/. c #A4A5A5",
"(. c #ADA7A7",
"). c gray68",
"_. c #B6B7B7",
"`. c #CF8181",
"'. c #D28484",
"]. c #D88787",
"[. c #D58B8B",
"{. c #D59292",
"}. c #D99494",
"|. c #D59999",
" X c #DD9B9B",
".X c #DFA1A1",
"XX c #C4BDBD",
"oX c #E1A4A4",
"OX c #E4ACAC",
"+X c #E7B1B1",
"@X c #E9B6B6",
"#X c #EAB9B9",
"$X c #C8C2C2",
"%X c #D6D0D0",
"&X c #ECC1C1",
"*X c #F1CACA",
"=X c #F5D5D5",
/* pixels */
"+ 7 7 6 5 5 5 5 5 5 5 5 5 5 5 5 5 5 5 5 5 5 5 5 5 5 5 5 5 5 5 5 5 5 5 5 5 5 5 5 5 5 5 5 5 5 5 5 5 5 5 5 5 5 5 5 5 5 5 5 5 5 g k ",
"5 & ; ; ; P P P I P I I I I P P I I I I I I P I P P ; P P ; ; J J P P I P P I I I I I I I P P P P P I I I I P P I I P P P P ~ c ",
"5 % = K ` | =.;.....=.......=.;.......| ....=.;. ._ Y U K U U U U Y ]  . ._ { ;.....| =...=.=.;.........=.| =.;.......=.....$.v ",
"5 % J U ` ..3.z.] { =.=.=.=.3.z.R | =.=.=.-.2.z.R ] _ U U K T / J U Y ] =. . .z.' | =.=.=.=.3.z.' | =.-.=.=.2.z.] | =.=.=.=.*.v ",
"5 & J U ` ..=.| Y { -.-.=.=.=.} U { =.-.=.=.=.[ K {  ._ Y K K J = K U Y ] ..| ] Y { =.=.=.=.=.| Y { =.=.=.=.=.| _ { -.=.=.=.&.v ",
"5 % = U ` | %.| [ | | | %.| %.| { { %.| | %.| | [ } | [ Y U K J K K J K U ] } [ Y R } | %.| } %.[ | | %.} %.| %.[ } %.=.=.=.*.v ",
"5 % J U Y * ; , , ; ; - * * * * % % % * - % % % % $ $ % $ $ $ $ $ # $ $ $ $ $ % $ $ $ $ $ $ % $ % $ % $ % $ $ % $ - / =.=.=.*.v ",
"5 % P U Y % d.|.|.M.v.t.1.1.<.&.$.+./ / ^ T U U K K J ; = * * * * * * * % % * % * % * % * * * * * = = J J K K K T | -.-.2.=.*.v ",
"5 % ^ K J % x.OX#X#XOXoX'.B.c.z.k.5.:.=.=.=.` ` _ Y Y U K K K J J = = = * = * * * * * * = = J J J K K U U Y _ _ _ 0.w.3.z.' } v ",
"5 % J = J % u.OXOX#X#XOX.X{.M.c.c.k.6.:.=.=...{ _ _ Y Y U U K J J J J = = = * * * * * = * * = = J J J K K U Y Y _ 4.w.=.| Y } v ",
"5 & J K U % w.|..XOX#X#XOX X}.M.b.l.k.5.:.-.=...` _ _ Y Y U K K K J = J = = = * * * * * = * * = = J J J K U U Y Y 4.k.=.=. .$.v ",
"5 % J U Y % t.}. XoXOX#X#XOXoX[.M.b.z.k.j.:.=.=.=.] _ _ Y Y U U K J J J = = = = * * * * * * * = = = J J J K U U Y 4.l...=.=.*.v ",
"5 % P U Y % 9.M.'. XoX+X@X#XOXoX[.M.b.l.k.6.:.=.-...] _ _ Y Y U U K J J J = = = = * * * * * * = = = = J J J K U U 4.w.=.=.=.*.v ",
"5 % = U Y % ,.b.M.{.}.oXoX#X#XOX.X[.M.x.z.k.6.:.=.=...] _ _ _ Y U K K K J J = = = = * * * * * * * = = J J J J K K 1.l...=.=.*.v ",
"5 % J U Y % %.z.m.`.[. XoX+X#X@XOX X}.B.b.z.k.6.-...=...{ ` _ _ Y U U K J J J J = = = = * * * * * * * = J J J K K 1.l.=.=.=.*.v ",
"5 % J U Y % | k.z.b.M.[.}.oXOX@X#XOXOX].m.b.l.k.6.6.-.=.=.` _ _ Y Y U U K J J J = = = * * * * * * * * = = = J J J 1.t.=.2.=.*.v ",
"5 & ^ I K $ } 5.k.c.m.M.]. XOXOX@X#XOX.X[.`.c.z.k.j.:.-.=.=.{ _ _ Y Y U K K J J J = = = = = * * * * = * * = J J J 1.k.2.z.' $.c ",
"5 % J = J $ [ ;.j.k.l.m.M.'.}.oXOX#X@XOX}.}.B.c.l.k.6.-.=.=. .] _ _ Y Y U U K J J J = = * = * * * * * * * = = = = 1.w.=.| Y } v ",
"5 % J K U $ / -.6.6.k.z.b.`.{.}.OXOX#X#XOXoX[.`.b.z.k.5.:.-.=.=.] _ _ _ Y U U K K J J J = = * = * * * * * * * = = 1.w.=.=. .$.c ",
"5 % J U Y % / =.=.3.j.k.l.m.`.'.}.oX+X@X#XOXoX}.m.b.z.l.j.3.-.=. .] _ _ Y Y U K K J J J = = = = * * * * * = * = = <.l.=.=.=.*.v ",
"5 % J U Y % T =.=.-.:.6.k.l.b.B.[.}.oXoX@X#XOX X[.m.b.l.k.3.-.=.-. .` ` _ _ Y U U K J J J J = = = * * * * * * * * 8.k.=.=.=.*.v ",
"5 & J U Y % T  .=.=.=.3.6.k.z.m.B.[. XOXOX#X#X+X.X}.B.c.z.k.0.:.-.=.=.] _ _ _ Y U U K J J J = = = = * * * * * * * #.k.=.=.=.&.v ",
"5 % J U Y $ K ] ....=.-.:.j.k.l.b.`.[.}.oXOX#X#XOXoX[.M.b.l.k.j.:.-.=.| ] ` _ Y Y U K K J J J J = = = * * * * * * ) ;.=.=.=.*.v ",
"5 % J U Y $ U _ ] ..=.=.-.3.j.k.x.b.`.[. XoXOX#X#XOX.X}.M.b.l.k.5.:.=.=...] _ _ Y Y U U K J J J = = = = = * * * * ^ { | 3.=.*.v ",
"5 % ^ I J $ K _ _ { | =.=.=.:.6.k.z.m.M.[. X.XOX@X#X@X}.[.B.b.z.k.j.3.=.=. . ._ _ _ Y U U K J J J J = = = * * * * ) =.{ z.R } v ",
"5 % J J J $ J Y _ ` ] { ..=.-.:.5.k.x.b.B.[.}.oXOX@X#XOX}.[.M.b.l.k.5.:.=.=...] ` _ _ Y U K K J J = J = = = * * * #.k.| R Y } v ",
"5 % = K U $ J Y Y _ _ ] | =.=.-.5.j.k.z.m.'.[. XoX+X@X#X@X.X[.B.c.z.k.6.6.=.=.=. ._ _ _ Y U U K J J J = = = * = * #.l.=.| _ ' v ",
"5 % J U Y $ J U U Y _ _ ] =.=.=.=.:.j.k.l.b.`.[.}.oXOX@X@XOX.X[.B.c.l.k.6.:.=.=...] _ _ Y Y U K K K J J = = = = * <.w.=.=.{ R c ",
"5 % J U Y $ J K U Y Y _ ` ]  .=.=.=.6.6.k.z.b.M.[.}.oXOX#X#XOXoX}.`.c.z.k.5.-.=.=.=.] _ _ Y Y U K K J J J = = = = <.4.] =.=.$.c ",
"5 % J U Y % J K K U U Y _ _ ]  .=.=.-.:.6.k.l.m.B.[. XoXOX#X#XOX X[.M.b.z.k.j.3.-.=...] _ _ Y Y U U K K J J J = = <.4.Y ] ..*.v ",
"5 & J U Y % = K K K U U Y _ _ ] ..=.=.-.:.j.k.l.b.M.[.}.oXOX#X#XOX.X'.M.b.l.k.6.:.=.-...` _ _ Y Y U U J J J J = = <.1.U Y ] %.v ",
"5 % J U Y $ = J K K U U U Y Y _ ]  .=.=.=.3.6.k.x.v.M.[. XoXOX#X@XOX.X{.B.c.z.k.6.:.=.=...{ _ _ Y Y U U K J J J = &.*.U U Y [ c ",
"5 % T T K $ = J J K K K U U Y _ _ ] ..=.=.=.:.6.k.l.b.B.[.|..XOX#X#XOX}.}.B.b.l.k.5.:.-.-.| ` ` _ _ Y U K K K J J $.%.T R J T h ",
"+ % J J J $ = J J J K K K U Y Y _ _ {  ...=.-.6.5.k.x.b.'.[. XoXOX@X#XOXoX[.B.b.z.k.j.:.=.=...] _ _ _ Y U U K J J &.*.K J J P h ",
"5 % J U U $ = = = J K K K K U U Y _ _ ] ..=.=.=.:.5.k.z.m.M.[. X.XOX#X#XOXoX[.M.b.l.k.5.:.=.-...] _ _ Y Y U U K J 1.1.K K K P c ",
"5 % J U Y $ * = = J J J K K K U Y Y _ _ ` ..=.=.:.3.6.k.z.b.M.[.}.oXOX#X#XOX.X[.M.c.l.k.6.;.=.=...] _ _ Y Y U K K 1.4.U U U P h ",
"5 % J U Y $ * = = J = J J K K U U U Y _ _ ] | =.=.=.6.j.k.c.m.'.[. X.X@X#X+X+X X|.`.b.z.k.j.-.=.=. .{ _ _ _ Y Y U 1.4.Y U K P c ",
"5 % J U Y $ * = = = = J J J K K K U U Y _ _ ]  .=.=.=.:.6.k.l.b.B.[.}..XOX@X#XOX.X[.M.b.l.k.3.5.:.=.=.` _ _ Y Y U q.l.] Y U P h ",
"5 % = U Y $ * * = = = J J J J K K K U Y Y Y ` { ....=.3.q.w.z.v.`.`.{..XOX@X#X&X@X.X|.'.c.z.k.j.:.=.=.=. ._ _ _ Y t.c.=.] _ I c ",
"5 % J U Y $ * = * = = = = J J J K K K U Y Y Y _ ] { ;.a.i.p.i.p.R.E.~.(.XX$X$X%X%XXX(.!.v.c.l.k.6.:.=.=. .] _ _ Y t.c.=.;.] U c ",
"5 % ^ I K $ % * * = = = = = J J J K K K U Y Y Y _ ] =.i.Z B B B B Z D H W.^./.)._./.E.l 8.'.c.z.k.6.6.=.=.=.] _ _ l.c.;.z.R R c ",
"5 % = J J $ * * * * * = = = = J J J K K K U U Y Y _ %.i.B N C B Z F F M F G H E.Q.).W.v e.}.M.b.z.k.6.3.=.=. .] _ l.c.=.| _ [ c ",
"5 % J K U $ % * * * * = = = = = J J J K K K U Y Y _ ' i.B B B C M Y.K.S.F.u z G T.Q.).V e.oX[.M.c.l.k.6.-.=.-.=._ l.c.=.=. .$.v ",
"5 & J U Y $ * * * * * * = = = = J J J J K K K U Y Y [ i.B B B B M S..   e q j C D T.Q.S r.@XoX}.B.c.z.k.j.:.=.=. .c.c...=.=.*.v ",
"5 % = U Y $ * * * * * * = * * = = J J J J K K K U U / i.Z B Z Z m V.  f M q f B V D T.b s.#XoXoX[.M.b.l.k.6.;.=...c.c.%.=.=.*.v ",
"5 % J U Y $ * = * * * * * * = = = = = = J J K K K U / i.B Z C V m t 0 0 0 8 O B Z V D h r.#X#XOXoX}.M.b.z.k.6.:.=.c.c.=.=.=.*.v ",
"5 % J U Y $ = = = * * * * * * = = = = J J J J K K U ^ i.A B Z B Z n j s w O s B Z Z Z g e.+X@X#X@X X[.M.b.l.k.6.:.c.c.=.=.=.*.v ",
"5 % J U Y $ = = = * * * * * * = * = = = = = J K K K I S z B Z Z B B B B B B N B Z B n g e.oXOX@X#XoX.X'.B.c.z.k.6.N.c.=.2.=.*.v ",
"5 % ^ I J $ = J = = = * * * * * * = = = = = = J K K P x 7 g d 7 d d d 7 d d d 7 d 7 7 4 7..XoXOX@X#XOXoX}.`.b.z.k.N.z.:.x.' } v ",
"+ % J J J $ = J = J = = * * * * * * = = = = = J J J K ; ; - = P = J P ! ! ! ! ( O.@.@.#.d.[.}.oXOX@X#XOX}.[.m.b.l.B.c.=.| Y } v ",
"5 % J K U $ = J J J = = = = * * * * * = = = = = = J K K K U Y Y Y _ ` ] ..-.=.-.6.6.k.c.b.`.[. XoXOX#X#X+X.X[.M.b.[.c...=. .%.v ",
"5 % J U Y $ J K J J J = = * * * * * * * = = = = = J J J L p i > E E W W Q X.o.a 3 ;.6.k.l.m.M.'.}.oXOX@X#XOXoX[.m.].c.=.=.=.&.v ",
"+ % J U Y $ J U K J J = = = = * * * * * * = = = J = J J > I.U.P.J.J.J.H.D.A.C.y 9 X.;.5.k.z.b.'.{.}.oXOX#X#XOXoX}.}.x...=.=.*.v ",
"5 % = U Y % J U K K J J = = = = = * * * * * = = = = = J : I.U.L.L.L.L.L.G.Z.V.y 8 $ [ 3.j.k.l.m.`.]. X.X@X#X@X+X X.Xz.=.=.=.*.v ",
"5 % J U Y $ K Y U K J K J J = = * * * * * * * * = = = = : C.r o < 1 1 1 1 2 1 9 X @ J | :.5.k.z.b.M.].}..XOX@X#XOXoXx.=.=.=.*.v ",
"5 % P U Y $ K Y U U K K J J J = = = * * * * * * = = = = = - @ # = K U Y Y _ ` L # $ * J { 5.6.k.x.m.M.[. XoXOX#X#XOXb.-.2.=.*.v ",
"5 % T P J % K _ Y U U K K J J J = * = * * * * * * * = = = = = * * * J J J J K K = * = = K | -.6.k.l.v.M.[.}..XOX#X#X[.l.x.' } v ",
"5 % J J J ; %.=.=.=.%.%.$.$.$.$.$.&.+.+.+.#.<.8.r.d.d.d.d.d.d.d.y.>.K U U U U U U T U U T =.c.'.].]. X XoXOXOX#X*X=X.Xb.4.Y } v ",
"+ % J K Y | 5.5.4.5.5.5.3.5.5.5.5.3.5.5.5.j.k.z.b.N.N.N.N.N.N.N.b.5.` _ Y Y Y Y Y Y Y Y ] *.c.N.N.N.N.N.N.N.N.'.oXOX[.m.c.5.*.v ",
"5 % J U _ =.=.2.=.=...=.=.=.=.2...=.=.=.=.%.=.2.=.=...=...=.=.;.....] Y _ Y ` [ _ Y _ _ _ { =.;.......=...=.=.5.z.m.m.M.m.b.9.v ",
"5 % J U ` ..3.z.R | =.=.=.=.2.z.' | =.=.=.=.3.z.R  .=.=.=.=.3.z.R { =...=...2.z.' { ..=...=.3.z.R  .=.=.=.=.:.b.%.l.m.m.M.m.g.b ",
"5 % J U ` ..=.| Y { =.=.=.=.=.| Y ] =.=.=.=.=.| Y { -.=.=.=.=.| Y { -.=.=.=.=.| Y { =.=.=.=.=.| Y { =.=.=.=.=.| Y =.l.m.m.M.n.b ",
"5 & - P _ $.$.$.} $.$.$.$.$.$.$.} $.$.$.$.$.$.$.} $.$.$.$.$.$.$.} $.$.$.$.$.$.$.} $.$.$.$.$.$.$.} $.$.$.$.$.$.$.} $.,.y.h.h.f.b ",
"6 5 5 5 5 7 7 7 7 6 7 7 7 7 7 7 7 7 7 7 6 7 7 6 6 6 6 7 7 6 7 7 7 7 7 7 7 6 7 7 7 7 7 7 6 7 7 7 7 6 6 7 7 7 7 6 6 6 6 7 s g l k "
};
